<?xml version="1.0" encoding="UTF-8"?>
<svg width="155px" height="81px" viewBox="0 0 155 81" version="1.1" xmlns="http://www.w3.org/2000/svg" xmlns:xlink="http://www.w3.org/1999/xlink">
    <!-- Generator: Sketch 47.1 (45422) - http://www.bohemiancoding.com/sketch -->
    <title>标题</title>
    <desc>Created with Sketch.</desc>
    <defs>
        <rect id="path-1" x="0" y="0" width="152" height="80"></rect>
        <radialGradient cx="50%" cy="0%" fx="50%" fy="0%" r="100%" gradientTransform="translate(0.500000,0.000000),scale(0.098767,1.000000),rotate(90.000000),scale(1.000000,4.180158),translate(-0.500000,-0.000000)" id="radialGradient-3">
            <stop stop-color="#1A7CF9" offset="0%"></stop>
            <stop stop-color="#1C2163" offset="54.6257175%"></stop>
            <stop stop-color="#0C0F3E" offset="100%"></stop>
        </radialGradient>
    </defs>
    <g id="Page-1" stroke="none" stroke-width="1" fill="none" fill-rule="evenodd">
        <g id="1025" transform="translate(-589.000000, -52.000000)">
            <g id="标题" transform="translate(589.000000, 52.000000)">
                <mask id="mask-2" fill="white">
                    <use xlink:href="#path-1"></use>
                </mask>
                <g id="Mask"></g>
                <g mask="url(#mask-2)">
                    <g>
                        <polygon id="Rectangle-19" fill="url(#radialGradient-3)" opacity="0.717467351" points="39.5210421 5.65116279 676.438878 5.65116279 688 27.3139535 654 57.4534884 647 57.4534884 638.997996 70.6395349 82.9619238 70.6395349 76 60.2790698 66 58.3953488 30 27.3139535"></polygon>
                        <path d="M682.504259,37.6649811 L693,18.8372093 L683.438878,0 L31.5210421,0 L23,18.8372093 L26.2161876,24.9071651 L26,24.4883721 L34.5210421,3.76744186 L680.438878,3.76744186 L690,23.5465116 L682.504259,37.6649811 Z" id="Combined-Shape" fill="#1A7CF9" fill-rule="nonzero" opacity="0.699999988"></path>
                        <polyline id="Path-12" stroke="#1A7CF9" stroke-width="3" opacity="0.75" points="-1.13686838e-13 36.7325581 27 36.7325581 61 64.0465116 71 64.0465116 82 80.0581395 122 80.0581395 131 70.6395349 149 77.2325581 568 77.2325581 585 72.5232558 593 81 640 81 649 64.0465116 658 64.0465116 690 36.7325581 715 36.7325581"></polyline>
                    </g>
                </g>
            </g>
        </g>
    </g>
</svg>