<?xml version="1.0" encoding="UTF-8"?>
<svg width="600px" height="17px" viewBox="0 0 600 17" version="1.1" xmlns="http://www.w3.org/2000/svg" xmlns:xlink="http://www.w3.org/1999/xlink">
    <!-- Generator: Sketch 47.1 (45422) - http://www.bohemiancoding.com/sketch -->
    <title>标题</title>
    <desc>Created with Sketch.</desc>
    <defs>
        <linearGradient x1="116.222839%" y1="50%" x2="0%" y2="50%" id="linearGradient-1">
            <stop stop-color="#020934" offset="0%"></stop>
            <stop stop-color="#293B88" offset="100%"></stop>
        </linearGradient>
        <linearGradient x1="-2.22044605e-14%" y1="50%" x2="100%" y2="50%" id="linearGradient-2">
            <stop stop-color="#1976ED" offset="0%"></stop>
            <stop stop-color="#1A143F" offset="100%"></stop>
        </linearGradient>
    </defs>
    <g id="Page-1" stroke="none" stroke-width="1" fill="none" fill-rule="evenodd">
        <g id="1025" transform="translate(-13.000000, -253.000000)">
            <g id="标题" transform="translate(13.000000, 254.000000)">
                <polyline id="Path-7" stroke="url(#linearGradient-1)" transform="translate(260.000000, 7.000000) scale(-1, 1) translate(-260.000000, -7.000000) " points="0 0 7.37200179 14 520 14"></polyline>
                <path d="M523,1 L532.107143,1 L541.214286,16 L532.107143,16 L523,1 Z M542.428571,1 L551.535714,1 L560.642857,16 L551.535714,16 L542.428571,1 Z M561.857143,1 L570.964286,1 L580.071429,16 L570.964286,16 L561.857143,1 Z M581.285714,1 L590.392857,1 L599.5,16 L590.392857,16 L581.285714,1 Z" id="Combined-Shape" fill="url(#linearGradient-2)" transform="translate(561.250000, 8.500000) scale(-1, 1) translate(-561.250000, -8.500000) "></path>
            </g>
        </g>
    </g>
</svg>