<?xml version="1.0" encoding="UTF-8"?>
<svg width="295px" height="47px" viewBox="0 0 295 47" version="1.1" xmlns="http://www.w3.org/2000/svg" xmlns:xlink="http://www.w3.org/1999/xlink">
    <!-- Generator: Sketch 47.1 (45422) - http://www.bohemiancoding.com/sketch -->
    <title>Group 19</title>
    <desc>Created with Sketch.</desc>
    <defs></defs>
    <g id="Page-1" stroke="none" stroke-width="1" fill="none" fill-rule="evenodd">
        <g id="1025-copy" transform="translate(-25.000000, -25.000000)">
            <g id="Group-19" transform="translate(25.000000, 25.000000)">
                <text id="北京北森云计算鹰眼监控系统" opacity="0.25" font-family="PingFangSC-Regular, PingFang SC" font-size="16" font-weight="normal" fill="#FFFFFF">
                    <tspan x="87" y="36">北京北森云计算鹰眼监控系统</tspan>
                </text>
                <g id="Group-16" opacity="0.849999964">
                    <path d="M1,10.3378714 L1.25085519,13.6209563 C1.25085519,13.6209563 8.96465222,8.9750814 18.1835804,6.24950147 C27.4025086,3.52392154 34.4264538,3.21419655 40.4469783,4.32920652 C46.4675029,5.44421649 49.4777651,8.04590643 49.4777651,8.04590643 C49.4777651,8.04590643 44.9623717,5.93977648 38.1892816,5.50616149 C31.4161916,5.0725465 23.8905359,6.06366648 16.1767389,8.78924641 C8.46294185,11.5148263 1.87799316,16.0987562 1.87799316,16.0987562 C1.87799316,16.0987562 2.06613455,19.3198961 2.44241733,21.3640811 C2.81870011,23.408266 3.50855188,26.2577359 3.50855188,26.2577359 C3.50855188,26.2577359 7.20866591,23.717991 11.0342075,21.9215861 C14.8597491,20.1251811 19.5005701,19.3198961 19.5005701,19.3198961 L12.0376283,23.841881 C12.0376283,23.841881 5.38996579,28.3638659 4.95096921,29.1072059 C4.95096921,29.4169309 6.14253136,32.7000158 7.08323831,34.8061457 C8.02394527,36.9122757 9.4663626,40.7528656 11.2223489,42.4253805 C12.6020525,39.8236906 14.9798047,36.6294511 15.6750285,36.3547707 C16.6157355,40.6289756 17.3055872,44.5315105 19.1870011,46.3898604 C20.4412771,38.5228456 21.8836944,35.3636507 26.2109464,30.5319408 C30.5381984,25.700231 38.6282782,22.417146 44.3352338,21.7976961 C34.6145952,13.9926263 19.3751425,13.6209563 19.3751425,13.6209563 C19.3751425,13.6209563 21.381984,11.8245513 24.4549601,11.0812113 C27.5279361,10.3378714 29.7856328,10.4617614 31.1653364,10.7714864 C32.5450399,11.0812113 34.36374,12.2581663 35.5553022,13.9926263 C36.7468643,15.7270862 37.7502851,16.7182062 38.8164196,17.2137662 C39.8825542,17.7093262 40.8232611,18.0889079 42.6419612,17.9030729 C44.4606613,17.7172379 45.5895097,16.9659862 46.2793615,16.0987562 C46.9692132,15.2315262 47.3139094,14.4938765 47.4709236,14.0545713 C47.537139,13.8693091 47.1573546,13.8687363 47.1573546,13.8687363 C47.1573546,13.8687363 46.9692132,14.1165163 46.4047891,14.9837462 C45.8403649,15.8509762 45.0877993,16.4704262 44.27252,16.8420962 C43.4572406,17.2137662 41.4503991,17.3376562 40.1334094,16.7182062 C38.8164196,16.0987562 37.0604333,14.9837462 37.0604333,12.8776163 C37.0604333,10.7714864 37.7502851,9.59453138 37.7502851,9.59453138 L35.5553022,8.41757642 C35.5553022,8.41757642 40.4469783,8.35563142 44.8369441,9.1609164 C49.2269099,9.96620137 52.9270239,12.0103863 53.1778791,12.4440013 C54.0558723,12.6298363 56,11.3909363 56,11.3909363 C56,11.3909363 54.6830103,8.04590643 51.4846066,6.00172148 C48.286203,3.95753653 44.6488027,1.78946159 36.1824401,1.17001161 C27.7160775,0.550561623 22.322691,1.72751659 16.6784493,3.02836156 C11.0342075,4.32920652 3.63397948,7.98396143 1.50171038,9.84231138 C1.37163444,9.95567728 1,10.3378714 1,10.3378714 Z" id="Combined-Shape" fill="#A0A0A0"></path>
                    <path d="M56.8765432,13.5519105 L57.1234568,13.6769587 C57.1234568,13.6769587 62.0617284,15.865303 65.6419753,18.2412196 C69.2222222,20.6171362 72,23.9309147 72,28.182555 C72,32.4341953 68.6049383,35.8104979 67.8024691,36.5607873 C67,37.3110768 62.9876543,40.499807 61.5061728,41 C61.8148148,40.499807 61.8148148,38.6866075 61.5679012,37.7487457 C61.3209877,36.8108838 60.5185185,35.9355461 58.6666667,34.5600154 C56.8148148,33.1844848 51.1975309,31.5588576 45.9506173,30.5584716 C40.7037037,29.5580857 32,29.3079892 32,29.3079892 C32,29.3079892 32.5555556,28.8077962 33.2962963,28.3076032 C34.037037,27.8074103 35.2716049,27.682362 37.7407407,27.682362 C40.2098765,27.682362 42.9259259,28.3076032 48.1111111,29.6206098 C53.2962963,30.9336164 58.2345679,32.6842918 58.2345679,32.6842918 C58.2345679,32.6842918 55.1481481,30.3708993 48.9753086,28.4951756 C42.8024691,26.6194519 37.1234568,26.2443072 37.1234568,26.2443072 C37.1234568,26.2443072 39.4074074,24.8687765 42,23.9309147 C44.5925926,22.9930529 50.1481481,21.5549981 51.691358,21.1173292 C53.2345679,20.6796604 52.4938272,20.2419915 51.5061728,19.6792744 C50.5185185,19.1165573 47.4938272,18.2412196 47.4938272,18.2412196 C47.4938272,18.2412196 48.9135802,16.8031648 51.4444444,15.3025859 C53.9753086,13.8020069 56.8765432,13.5519105 56.8765432,13.5519105 Z M57.308642,16.8656889 C57.1234568,16.5530683 56.382716,16.4905442 55.0246914,17.1783095 C53.6666667,17.8660749 53.2962963,18.5538402 53.4197531,18.8039367 C53.5432099,19.0540332 54.9012346,19.0205111 55.7654321,18.428792 C56.6296296,17.8370729 57.4938272,17.1783095 57.308642,16.8656889 Z" id="Combined-Shape" fill="#EBA500"></path>
                    <path d="M0.316239316,9.77652871 L0.566951567,13.0784337 C0.566951567,13.0784337 8.27635328,8.40592664 17.4900285,5.6647225 C26.7037037,2.92351837 33.7236467,2.6120179 39.7407407,3.73341959 C45.7578348,4.85482128 48.7663818,7.47142523 48.7663818,7.47142523 C48.7663818,7.47142523 44.2535613,5.35322203 37.4843305,4.91712138 C30.7150997,4.48102072 23.1937322,5.47782222 15.4843305,8.21902636 C7.77492877,10.9602305 1.19373219,15.5704375 1.19373219,15.5704375 C1.19373219,15.5704375 1.38176638,18.8100423 1.75783476,20.8659455 C2.13390313,22.9218486 2.82336182,25.7876529 2.82336182,25.7876529 C2.82336182,25.7876529 6.52136752,23.233349 10.3447293,21.4266463 C14.1680912,19.6199436 18.8062678,18.8100423 18.8062678,18.8100423 L11.3475783,23.3579492 C11.3475783,23.3579492 4.7037037,27.9058561 4.26495726,28.6534572 C4.26495726,28.9649577 5.45584046,32.3291628 6.52136752,34.3850659 C11.7863248,27.6566557 16.9259259,24.7908514 17.8660969,24.4170508 C17.7407407,25.6007526 16.9259259,27.9058561 16.9259259,31.7061618 C20.1225071,28.2796566 31.9059829,20.6790452 43.6267806,21.3020461 C33.9116809,13.4522343 18.6809117,13.0784337 18.6809117,13.0784337 C18.6809117,13.0784337 20.6866097,11.271731 23.7578348,10.5241298 C26.8290598,9.77652871 29.0854701,9.9011289 30.4643875,10.2126294 C31.8433048,10.5241298 33.6609687,11.7078316 34.8518519,13.4522343 C36.042735,15.1966369 37.2529839,16.1884879 38.1111111,16.6918392 C38.9692383,17.1951904 40.5765012,17.9041854 42.394165,17.7172852 C44.2118289,17.5303849 45.2689153,16.7409757 45.958374,15.8687744 C46.6478327,14.9965731 46.9923325,14.2546948 47.1492572,13.8128713 C47.2154349,13.6265471 46.8358669,13.625971 46.8358669,13.625971 C46.8358669,13.625971 46.6478327,13.8751714 46.0837301,14.7473727 C45.5196276,15.619574 44.7674908,16.242575 43.952676,16.6163755 C43.1378612,16.9901761 41.1321632,17.1147763 39.8159239,16.4917754 C38.4996846,15.8687744 36.3561254,14.4490358 36.3561254,12.3308326 C36.3561254,10.2126294 37.045584,9.02892758 37.045584,9.02892758 L34.8518519,7.8452258 C34.8518519,7.8452258 39.7407407,7.7829257 44.1282051,8.59282692 C48.5156695,9.40272815 52.2136752,11.4586313 52.4643875,11.8947319 C53.3418803,12.0816322 55.2849003,10.8356303 55.2849003,10.8356303 C55.2849003,10.8356303 53.968661,7.47142523 50.7720798,5.41552213 C47.5754986,3.35961902 43.9401709,1.17911573 35.4786325,0.556114793 C27.017094,-0.0668861479 21.6267806,1.11681564 15.985755,2.42511761 C10.3447293,3.73341959 2.94871795,7.40912514 0.817663818,9.27812796 C0.687661995,9.39214373 0.316239316,9.77652871 0.316239316,9.77652871 Z" id="Combined-Shape" fill="#FFFFFF"></path>
                </g>
            </g>
        </g>
    </g>
</svg>