<?xml version="1.0" encoding="UTF-8"?>
<svg width="600px" height="17px" viewBox="0 0 600 17" version="1.1" xmlns="http://www.w3.org/2000/svg" xmlns:xlink="http://www.w3.org/1999/xlink">
    <!-- Generator: Sketch 47.1 (45422) - http://www.bohemiancoding.com/sketch -->
    <title>标题</title>
    <desc>Created with Sketch.</desc>
    <defs>
        <linearGradient x1="-2.22044605e-14%" y1="50%" x2="100%" y2="50%" id="linearGradient-1">
            <stop stop-color="#1976ED" offset="0%"></stop>
            <stop stop-color="#1A143F" offset="100%"></stop>
        </linearGradient>
        <linearGradient x1="116.222839%" y1="50%" x2="0%" y2="50%" id="linearGradient-2">
            <stop stop-color="#020934" offset="0%"></stop>
            <stop stop-color="#293B88" offset="100%"></stop>
        </linearGradient>
    </defs>
    <g id="Page-1" stroke="none" stroke-width="1" fill="none" fill-rule="evenodd">
        <g id="1025" transform="translate(-1307.000000, -253.000000)">
            <g id="标题" transform="translate(1307.000000, 254.000000)">
                <path d="M0,1 L9.10714286,1 L18.2142857,16 L9.10714286,16 L0,1 Z M19.4285714,1 L28.5357143,1 L37.6428571,16 L28.5357143,16 L19.4285714,1 Z M38.8571429,1 L47.9642857,1 L57.0714286,16 L47.9642857,16 L38.8571429,1 Z M58.2857143,1 L67.3928571,1 L76.5,16 L67.3928571,16 L58.2857143,1 Z" id="Combined-Shape" fill="url(#linearGradient-1)"></path>
                <polyline id="Path-7" stroke="url(#linearGradient-2)" points="79 0 87.3720018 14 600 14"></polyline>
            </g>
        </g>
    </g>
</svg>